<svg width="75" height="75" viewBox="0 0 75 75" fill="none" xmlns="http://www.w3.org/2000/svg">
<path d="M69.8562 36.3935C70.0018 36.5387 70.1172 36.7111 70.196 36.9009C70.2747 37.0908 70.3153 37.2943 70.3153 37.4998C70.3153 37.7053 70.2747 37.9088 70.196 38.0986C70.1172 38.2885 70.0018 38.4609 69.8562 38.606L57.3562 51.106C57.211 51.2513 57.0385 51.3665 56.8487 51.4452C56.6589 51.5238 56.4554 51.5642 56.25 51.5642C55.8351 51.5642 55.4371 51.3994 55.1437 51.106C54.8503 50.8126 54.6855 50.4147 54.6855 49.9998C54.6855 49.5849 54.8503 49.1869 55.1437 48.8935L64.9781 39.0623H6.25C5.8356 39.0623 5.43817 38.8977 5.14515 38.6046C4.85212 38.3116 4.6875 37.9142 4.6875 37.4998C4.6875 37.0854 4.85212 36.6879 5.14515 36.3949C5.43817 36.1019 5.8356 35.9373 6.25 35.9373H64.9781L55.1437 26.106C54.8503 25.8126 54.6855 25.4147 54.6855 24.9998C54.6855 24.5849 54.8503 24.1869 55.1437 23.8935C55.4371 23.6001 55.8351 23.4353 56.25 23.4353C56.6649 23.4353 57.0629 23.6001 57.3562 23.8935L69.8562 36.3935Z" fill="#7F3233"/>
</svg>
