<svg width="75" height="75" viewBox="0 0 75 75" fill="none" xmlns="http://www.w3.org/2000/svg">
<path d="M5.14375 36.3935C4.99825 36.5387 4.8828 36.7111 4.80402 36.9009C4.72525 37.0908 4.68471 37.2943 4.68471 37.4998C4.68471 37.7053 4.72525 37.9088 4.80402 38.0986C4.8828 38.2885 4.99825 38.4609 5.14375 38.606L17.6438 51.106C17.789 51.2513 17.9615 51.3665 18.1513 51.4452C18.3411 51.5238 18.5446 51.5642 18.75 51.5642C19.1649 51.5642 19.5629 51.3994 19.8563 51.106C20.1497 50.8126 20.3145 50.4147 20.3145 49.9998C20.3145 49.5849 20.1497 49.1869 19.8563 48.8935L10.0219 39.0623H68.75C69.1644 39.0623 69.5618 38.8977 69.8549 38.6046C70.1479 38.3116 70.3125 37.9142 70.3125 37.4998C70.3125 37.0854 70.1479 36.6879 69.8549 36.3949C69.5618 36.1019 69.1644 35.9373 68.75 35.9373H10.0219L19.8563 26.106C20.1497 25.8126 20.3145 25.4147 20.3145 24.9998C20.3145 24.5849 20.1497 24.1869 19.8563 23.8935C19.5629 23.6001 19.1649 23.4353 18.75 23.4353C18.3351 23.4353 17.9371 23.6001 17.6438 23.8935L5.14375 36.3935Z" fill="#7F3233"/>
</svg>
