<svg width="31" height="31" viewBox="0 0 31 31" fill="none" xmlns="http://www.w3.org/2000/svg">
<g clip-path="url(#clip0_851_1091)">
<path d="M24.8629 10.0413H9.48507C9.36148 10.0413 9.24295 10.0904 9.15556 10.1777C9.06817 10.2651 9.01907 10.3837 9.01907 10.5073C9.01907 10.6308 9.06817 10.7494 9.15556 10.8368C9.24295 10.9242 9.36148 10.9732 9.48507 10.9732H24.8629C24.9865 10.9732 25.105 10.9242 25.1924 10.8368C25.2798 10.7494 25.3289 10.6308 25.3289 10.5073C25.3289 10.3837 25.2798 10.2651 25.1924 10.1777C25.105 10.0904 24.9865 10.0413 24.8629 10.0413Z" fill="#E3433C"/>
<path d="M24.8629 12.3713H9.48507C9.36148 12.3713 9.24295 12.4204 9.15556 12.5078C9.06817 12.5952 9.01907 12.7137 9.01907 12.8373C9.01907 12.9609 9.06817 13.0795 9.15556 13.1668C9.24295 13.2542 9.36148 13.3033 9.48507 13.3033H24.8629C24.9865 13.3033 25.105 13.2542 25.1924 13.1668C25.2798 13.0795 25.3289 12.9609 25.3289 12.8373C25.3289 12.7137 25.2798 12.5952 25.1924 12.5078C25.105 12.4204 24.9865 12.3713 24.8629 12.3713Z" fill="#E3433C"/>
<path d="M24.8629 14.7014H9.48507C9.36148 14.7014 9.24295 14.7505 9.15556 14.8379C9.06817 14.9253 9.01907 15.0438 9.01907 15.1674C9.01907 15.291 9.06817 15.4095 9.15556 15.4969C9.24295 15.5843 9.36148 15.6334 9.48507 15.6334H24.8629C24.9865 15.6334 25.105 15.5843 25.1924 15.4969C25.2798 15.4095 25.3289 15.291 25.3289 15.1674C25.3289 15.0438 25.2798 14.9253 25.1924 14.8379C25.105 14.7505 24.9865 14.7014 24.8629 14.7014Z" fill="#E3433C"/>
<path d="M9.0191 8.64335C9.14269 8.64335 9.26121 8.59425 9.3486 8.50686C9.436 8.41947 9.48509 8.30094 9.48509 8.17735V6.42335L10.4665 8.38565C10.5135 8.47943 10.5907 8.5546 10.6858 8.59902C10.7808 8.64343 10.888 8.65449 10.9901 8.63039C11.0922 8.6063 11.1832 8.54847 11.2483 8.46625C11.3135 8.38404 11.349 8.28225 11.3491 8.17735V4.44939C11.3491 4.3258 11.3 4.20728 11.2126 4.11989C11.1252 4.03249 11.0067 3.9834 10.8831 3.9834C10.7595 3.9834 10.641 4.03249 10.5536 4.11989C10.4662 4.20728 10.4171 4.3258 10.4171 4.44939V6.2034L9.43569 4.24109C9.3887 4.14732 9.31143 4.07214 9.21641 4.02773C9.12138 3.98332 9.01415 3.97226 8.91206 3.99635C8.80997 4.02045 8.71899 4.07828 8.65385 4.1605C8.58871 4.24271 8.55321 4.3445 8.5531 4.44939V8.17735C8.5531 8.30094 8.6022 8.41947 8.68959 8.50686C8.77698 8.59425 8.89551 8.64335 9.0191 8.64335Z" fill="#E3433C"/>
<path d="M13.213 8.64335C13.5838 8.64335 13.9394 8.49606 14.2016 8.23389C14.4637 7.97172 14.611 7.61613 14.611 7.24536V5.38138C14.611 5.01061 14.4637 4.65503 14.2016 4.39286C13.9394 4.13069 13.5838 3.9834 13.213 3.9834C12.8423 3.9834 12.4867 4.13069 12.2245 4.39286C11.9624 4.65503 11.8151 5.01061 11.8151 5.38138V7.24536C11.8151 7.61613 11.9624 7.97172 12.2245 8.23389C12.4867 8.49606 12.8423 8.64335 13.213 8.64335ZM12.7471 5.38138C12.7471 5.25779 12.7961 5.13927 12.8835 5.05188C12.9709 4.96448 13.0895 4.91539 13.213 4.91539C13.3366 4.91539 13.4552 4.96448 13.5426 5.05188C13.6299 5.13927 13.679 5.25779 13.679 5.38138V7.24536C13.679 7.36895 13.6299 7.48748 13.5426 7.57487C13.4552 7.66226 13.3366 7.71136 13.213 7.71136C13.0895 7.71136 12.9709 7.66226 12.8835 7.57487C12.7961 7.48748 12.7471 7.36895 12.7471 7.24536V5.38138Z" fill="#E3433C"/>
<path d="M15.543 4.91539H16.009V8.17735C16.009 8.30094 16.0581 8.41947 16.1455 8.50686C16.2329 8.59425 16.3514 8.64335 16.475 8.64335C16.5986 8.64335 16.7171 8.59425 16.8045 8.50686C16.8919 8.41947 16.941 8.30094 16.941 8.17735V4.91539H17.407C17.5306 4.91539 17.6491 4.86629 17.7365 4.7789C17.8239 4.69151 17.873 4.57298 17.873 4.44939C17.873 4.3258 17.8239 4.20728 17.7365 4.11989C17.6491 4.03249 17.5306 3.9834 17.407 3.9834H15.543C15.4194 3.9834 15.3009 4.03249 15.2135 4.11989C15.1261 4.20728 15.077 4.3258 15.077 4.44939C15.077 4.57298 15.1261 4.69151 15.2135 4.7789C15.3009 4.86629 15.4194 4.91539 15.543 4.91539Z" fill="#E3433C"/>
<path d="M18.805 8.64335C18.9286 8.64335 19.0471 8.59425 19.1345 8.50686C19.2219 8.41947 19.271 8.30094 19.271 8.17735V4.44939C19.271 4.3258 19.2219 4.20728 19.1345 4.11989C19.0471 4.03249 18.9286 3.9834 18.805 3.9834C18.6814 3.9834 18.5629 4.03249 18.4755 4.11989C18.3881 4.20728 18.339 4.3258 18.339 4.44939V8.17735C18.339 8.30094 18.3881 8.41947 18.4755 8.50686C18.5629 8.59425 18.6814 8.64335 18.805 8.64335Z" fill="#E3433C"/>
<path d="M21.135 8.64335C21.5057 8.64335 21.8613 8.49606 22.1235 8.23389C22.3857 7.97172 22.5329 7.61613 22.5329 7.24536C22.5329 7.12177 22.4838 7.00325 22.3965 6.91586C22.3091 6.82846 22.1905 6.77937 22.0669 6.77937C21.9434 6.77937 21.8248 6.82846 21.7374 6.91586C21.65 7.00325 21.6009 7.12177 21.6009 7.24536C21.6009 7.36895 21.5519 7.48748 21.4645 7.57487C21.3771 7.66226 21.2585 7.71136 21.135 7.71136C21.0114 7.71136 20.8928 7.66226 20.8054 7.57487C20.7181 7.48748 20.669 7.36895 20.669 7.24536V5.38138C20.669 5.25779 20.7181 5.13927 20.8054 5.05188C20.8928 4.96448 21.0114 4.91539 21.135 4.91539C21.2585 4.91539 21.3771 4.96448 21.4645 5.05188C21.5519 5.13927 21.6009 5.25779 21.6009 5.38138C21.6009 5.50497 21.65 5.6235 21.7374 5.71089C21.8248 5.79828 21.9434 5.84738 22.0669 5.84738C22.1905 5.84738 22.3091 5.79828 22.3965 5.71089C22.4838 5.6235 22.5329 5.50497 22.5329 5.38138C22.5329 5.01061 22.3857 4.65503 22.1235 4.39286C21.8613 4.13069 21.5057 3.9834 21.135 3.9834C20.7642 3.9834 20.4086 4.13069 20.1464 4.39286C19.8843 4.65503 19.737 5.01061 19.737 5.38138V7.24536C19.737 7.61613 19.8843 7.97172 20.1464 8.23389C20.4086 8.49606 20.7642 8.64335 21.135 8.64335Z" fill="#E3433C"/>
<path d="M23.4649 8.64335H25.3289C25.4525 8.64335 25.571 8.59425 25.6584 8.50686C25.7458 8.41947 25.7949 8.30094 25.7949 8.17735C25.7949 8.05376 25.7458 7.93524 25.6584 7.84785C25.571 7.76045 25.4525 7.71136 25.3289 7.71136H23.9309V6.77937H24.8629C24.9865 6.77937 25.105 6.73027 25.1924 6.64288C25.2798 6.55549 25.3289 6.43696 25.3289 6.31337C25.3289 6.18978 25.2798 6.07126 25.1924 5.98387C25.105 5.89647 24.9865 5.84738 24.8629 5.84738H23.9309V4.91539H25.3289C25.4525 4.91539 25.571 4.86629 25.6584 4.7789C25.7458 4.69151 25.7949 4.57298 25.7949 4.44939C25.7949 4.3258 25.7458 4.20728 25.6584 4.11989C25.571 4.03249 25.4525 3.9834 25.3289 3.9834H23.4649C23.3413 3.9834 23.2228 4.03249 23.1354 4.11989C23.048 4.20728 22.9989 4.3258 22.9989 4.44939V8.17735C22.9989 8.30094 23.048 8.41947 23.1354 8.50686C23.2228 8.59425 23.3413 8.64335 23.4649 8.64335Z" fill="#E3433C"/>
<path d="M28.9837 16.968C28.85 16.7359 28.6672 16.5357 28.4481 16.3815C28.229 16.2273 27.9789 16.1228 27.7153 16.0752C27.6962 16.0719 27.6775 16.0752 27.6589 16.0714V2.11956C27.6589 1.99597 27.6098 1.87744 27.5224 1.79005C27.435 1.70266 27.3165 1.65356 27.1929 1.65356H7.15513C7.03154 1.65356 6.91301 1.70266 6.82562 1.79005C6.73823 1.87744 6.68913 1.99597 6.68913 2.11956V18.5436L2.0865 21.1997C1.97947 21.2615 1.90138 21.3633 1.86939 21.4827C1.83741 21.6021 1.85415 21.7292 1.91595 21.8363L6.80889 30.3123C6.87069 30.4193 6.97247 30.4974 7.09185 30.5294C7.21122 30.5613 7.33841 30.5446 7.44544 30.4828L11.2908 28.2619L12.905 27.3299C13.0121 27.2681 13.0902 27.1663 13.1221 27.0469C13.1541 26.9276 13.1374 26.8004 13.0756 26.6933L12.9591 26.4916L13.6637 26.0843L19.4676 25.9123C20.1905 25.8896 20.8856 25.6286 21.4449 25.17L28.5587 19.3148C28.8968 19.0379 29.1253 18.6496 29.2031 18.2196C29.281 17.7896 29.2032 17.3459 28.9837 16.968ZM26.7269 2.58555V16.1786C26.5417 16.2463 26.3686 16.3433 26.2143 16.4661L21.834 20.0725C21.6635 19.637 21.3659 19.263 20.9799 18.9989C20.594 18.7349 20.1375 18.5931 19.6699 18.592H16.5072L13.6646 17.4205C13.0045 17.1506 12.2916 17.0348 11.58 17.0819C10.8684 17.1291 10.177 17.338 9.55826 17.6926L8.29728 18.421L8.18078 18.2192C8.1255 18.1259 8.03904 18.0551 7.93665 18.0193C7.83426 17.9835 7.72252 17.985 7.62112 18.0235V2.58555H26.7269ZM7.38346 29.4427L2.95651 21.7752L5.99433 20.0208L10.4213 27.6887L7.38346 29.4427ZM11.2284 27.2222L6.80144 19.5548L7.60807 19.0888L12.035 26.7562L11.2284 27.2222ZM27.9665 18.5953L20.8526 24.4514C20.4534 24.779 19.9572 24.9655 19.4411 24.9817L13.5197 25.1574C13.4425 25.1594 13.367 25.1807 13.3002 25.2194L12.4931 25.6854L8.76514 19.2286L10.0261 18.5002C10.521 18.2163 11.0742 18.0491 11.6435 18.0113C12.2129 17.9735 12.7833 18.0661 13.3114 18.2821L16.2369 19.4886C16.2932 19.512 16.3535 19.524 16.4144 19.524H19.668C20.0388 19.524 20.3944 19.6713 20.6565 19.9335C20.9187 20.1956 21.066 20.5512 21.066 20.922C21.066 21.0456 21.0169 21.1641 20.9295 21.2515C20.8421 21.3389 20.7236 21.388 20.6 21.388H15.0081C14.8845 21.388 14.766 21.4371 14.6786 21.5245C14.5912 21.6119 14.5421 21.7304 14.5421 21.854C14.5421 21.9776 14.5912 22.0961 14.6786 22.1835C14.766 22.2709 14.8845 22.32 15.0081 22.32H20.6C20.9284 22.3192 21.246 22.2029 21.4972 21.9914C21.7483 21.7799 21.9171 21.4868 21.9738 21.1634L26.8052 17.1856C26.9921 17.0317 27.2326 16.9583 27.4736 16.9817C27.5929 16.9932 27.7088 17.0282 27.8147 17.0845C27.9205 17.1409 28.0142 17.2175 28.0904 17.3101C28.1666 17.4026 28.2239 17.5093 28.2589 17.624C28.2939 17.7386 28.3059 17.8591 28.2944 17.9784C28.2828 18.0978 28.2479 18.2137 28.1915 18.3195C28.1352 18.4254 28.059 18.5191 27.9665 18.5953Z" fill="#E3433C"/>
</g>
<defs>
<clipPath id="clip0_851_1091">
<rect width="29.8237" height="29.8237" fill="white" transform="translate(0.631104 0.721436)"/>
</clipPath>
</defs>
</svg>
