<svg width="27" height="27" viewBox="0 0 27 27" fill="none" xmlns="http://www.w3.org/2000/svg">
<path d="M3.7626 9.74753C3.7626 9.54598 3.92694 9.38266 4.12975 9.38266H15.1278C15.3305 9.38266 15.4949 9.54598 15.4949 9.74753C15.4949 9.94908 15.3305 10.1124 15.1278 10.1124H4.12975C3.92694 10.1123 3.7626 9.94908 3.7626 9.74753ZM9.76823 12.4596H4.12975C3.92694 12.4596 3.7626 12.6229 3.7626 12.8245C3.7626 13.026 3.92694 13.1893 4.12975 13.1893H9.76829C9.97109 13.1893 10.1354 13.026 10.1354 12.8245C10.1354 12.6229 9.97104 12.4596 9.76823 12.4596ZM9.76823 15.5365H4.12975C3.92694 15.5365 3.7626 15.6999 3.7626 15.9014C3.7626 16.1028 3.92694 16.2662 4.12975 16.2662H9.76829C9.97109 16.2662 10.1354 16.1028 10.1354 15.9014C10.1354 15.6999 9.97104 15.5365 9.76823 15.5365ZM9.76823 18.6134H4.12975C3.92694 18.6134 3.7626 18.7768 3.7626 18.9783C3.7626 19.1797 3.92694 19.3431 4.12975 19.3431H9.76829C9.97109 19.3431 10.1354 19.1797 10.1354 18.9783C10.1354 18.7768 9.97104 18.6134 9.76823 18.6134ZM26.9187 18.3549C26.82 18.569 26.6438 18.7317 26.4227 18.8134L25.2783 19.236C25.1784 19.2728 25.0744 19.2911 24.9707 19.2911C24.845 19.2911 24.7195 19.2642 24.6014 19.2103C24.5181 19.1723 24.4454 19.1199 24.3793 19.0608C24.3512 19.3183 24.2535 19.565 24.083 19.7507C23.849 20.0056 23.5334 20.1051 23.1967 20.04C23.1883 20.2082 23.1436 20.3773 23.0583 20.5355C22.8073 21.0016 22.2846 21.2318 21.7869 21.1355C21.7776 21.3025 21.7315 21.4666 21.65 21.6182C21.6029 21.7058 21.5424 21.7827 21.4765 21.8541V22.8957C21.4765 24.1799 20.4465 25.227 19.1647 25.2701C18.8797 26.267 17.9575 27 16.8642 27H2.39309C1.07357 27 0 25.9332 0 24.6217V4.104C0 2.81965 1.03049 1.77251 2.31254 1.72979C2.60153 0.72515 3.53836 0 4.61209 0H19.0833C20.4029 0 21.4764 1.06692 21.4764 2.37827V13.7327C21.5254 13.7528 21.5734 13.7727 21.6203 13.7923C21.985 13.9438 22.2153 14.0267 22.3975 14.0193C22.3575 13.835 22.375 13.6438 22.4557 13.4688C22.5544 13.2549 22.7305 13.0921 22.9517 13.0105L24.0963 12.5881C24.3177 12.5067 24.5582 12.5155 24.7733 12.6137C24.9884 12.7118 25.1521 12.8869 25.2343 13.1066L26.9446 17.6823C27.0265 17.9022 27.0174 18.1412 26.9187 18.3549ZM21.3368 14.4654C20.6454 14.178 19.9306 13.8805 18.9362 14.5626C18.7253 14.7075 18.5087 14.8904 18.2919 15.108C18.1614 15.2389 18.0275 15.3698 17.8968 15.4973C17.6308 15.7569 17.3157 16.0646 17.146 16.2743C17.6477 16.7941 18.1707 16.6359 18.9946 16.3277C19.6658 16.0767 20.4249 15.792 21.0975 16.3011C21.2822 16.4059 21.5545 16.5394 21.8423 16.6807C22.6615 17.0828 23.3512 17.4373 23.7956 17.796L22.6457 14.7193C22.5585 14.7387 22.4712 14.7507 22.3844 14.7507C22.0226 14.7507 21.6662 14.6025 21.3368 14.4654ZM3.09018 1.72573H16.8642C18.1838 1.72573 19.2573 2.79265 19.2573 4.104V13.5739C19.8139 13.3695 20.3078 13.3879 20.7421 13.4885V2.37827C20.7421 1.46934 19.9981 0.729738 19.0833 0.729738H4.61209C3.94222 0.729738 3.34839 1.13664 3.09018 1.72573ZM11.6125 5.92297L13.5929 4.59617C13.717 4.51301 13.8791 4.51301 14.0034 4.59617L15.774 5.78232V2.45547H11.6125V5.92297ZM18.523 24.6217V23.7292C18.4461 23.7479 18.3685 23.7585 18.2914 23.7585C18.1119 23.7585 17.9352 23.7105 17.7782 23.6269C17.5205 23.4901 17.3057 23.2523 17.1907 22.9751C17.1833 22.9775 17.1759 22.9798 17.1683 22.982C16.8742 23.0704 16.5638 23.0404 16.2939 22.8969C16.0934 22.7974 15.9287 22.6335 15.8219 22.4276C15.7705 22.4516 15.7172 22.472 15.662 22.4886C15.368 22.577 15.0572 22.5471 14.7876 22.4036C14.5304 22.276 14.3325 22.0425 14.2391 21.7506C14.1891 21.5943 14.1731 21.4304 14.1901 21.2712C14.0228 21.2643 13.8545 21.2208 13.6972 21.1372C13.4403 21.0099 13.2424 20.7764 13.1489 20.4845C13.0534 20.1863 13.0817 19.8614 13.2263 19.5927L13.3583 19.3475C13.282 19.3684 13.2043 19.3818 13.1258 19.3818C13.0346 19.3818 12.9429 19.3675 12.8537 19.3388L11.692 18.9666C11.2276 18.8176 10.9715 18.3207 11.1213 17.8591L12.6295 13.2137C12.7019 12.9905 12.8579 12.8085 13.0688 12.7012C13.2796 12.594 13.5194 12.5747 13.7439 12.6464L14.906 13.019C15.2041 13.1147 15.4145 13.3541 15.4886 13.635C15.7581 13.6444 16.027 13.5915 16.3263 13.5324C16.9531 13.4087 17.6528 13.2715 18.5232 13.6987V4.104C18.5232 3.19507 17.7791 2.45547 16.8644 2.45547H16.5085V6.4684C16.5085 6.60335 16.4337 6.72722 16.3137 6.7905C16.1937 6.85394 16.0488 6.84619 15.936 6.77088L13.7982 5.33872L11.6104 6.80447C11.5498 6.84508 11.4784 6.86681 11.4052 6.86681H11.2456C11.0428 6.86681 10.8784 6.70349 10.8784 6.50194V2.45547H2.39309C1.4785 2.45547 0.734288 3.19507 0.734288 4.104V24.6217C0.734288 25.5308 1.4785 26.2703 2.39309 26.2703H16.8642C17.779 26.2703 18.523 25.5308 18.523 24.6217ZM19.6093 21.8648C19.6653 22.0967 19.6187 22.3271 19.5484 22.5181L19.5857 22.5374C19.814 22.6542 19.9311 22.478 19.961 22.4212C19.9945 22.3576 20.0718 22.1495 19.8205 21.9775L19.6093 21.8648ZM19.246 23.1844L19.2175 23.1695C19.2145 23.1746 19.2113 23.1793 19.2084 23.1844H19.246ZM18.0622 22.0314L18.0617 22.0321L17.8724 22.3839C17.7517 22.6084 17.9379 22.8844 18.1246 22.9834C18.1943 23.021 18.408 23.134 18.6028 22.7723L18.7405 22.5165C18.7406 22.5163 18.7406 22.516 18.7407 22.5157C19.001 22.0316 18.9257 21.962 18.6485 21.8145C18.5294 21.7511 18.4018 21.7808 18.3365 21.8036C18.2178 21.8454 18.1179 21.9285 18.0622 22.0314ZM17.4577 20.7342C17.2572 20.6277 17.0052 20.703 16.8974 20.9033C16.8973 20.9036 16.897 20.9039 16.8968 20.9042L16.4703 21.6967V21.6969C16.4186 21.7929 16.4096 21.9119 16.4452 22.0231C16.4643 22.0825 16.5135 22.1906 16.6311 22.249C16.7367 22.3051 16.8489 22.3158 16.9552 22.2837C17.0615 22.2516 17.1488 22.1811 17.2007 22.0849L17.2255 22.0388C17.2257 22.0384 17.226 22.0381 17.2263 22.0377L17.4133 21.6901C17.4136 21.6895 17.4138 21.6888 17.4141 21.6882H17.4144L17.6278 21.2916C17.7355 21.0912 17.6592 20.8413 17.4577 20.7342ZM16.3857 20.0498C16.3534 19.9438 16.2824 19.8573 16.1856 19.8058C15.9846 19.6987 15.733 19.7747 15.6251 19.9747C15.625 19.975 15.6247 19.9753 15.6245 19.9756L15.2508 20.67L14.964 21.203C14.9124 21.2992 14.9033 21.418 14.9389 21.5294C14.9578 21.5888 15.0073 21.6971 15.1249 21.7555C15.3357 21.8674 15.5867 21.7909 15.6944 21.5914L15.823 21.3524C15.8232 21.3521 15.8234 21.3518 15.8236 21.3515L16.2495 20.5602C16.2497 20.5599 16.2497 20.5595 16.2499 20.5593L16.3553 20.3631C16.4072 20.2667 16.4179 20.1555 16.3857 20.0498ZM14.9018 18.8566C14.8095 18.8134 14.7046 18.8056 14.6047 18.8357C14.4981 18.8678 14.4111 18.9383 14.3593 19.0345L14.2022 19.3263C14.2022 19.3263 14.2021 19.3264 14.2021 19.3265L13.8736 19.937C13.8219 20.0329 13.8129 20.152 13.8485 20.2633C13.8676 20.3225 13.9168 20.4308 14.0347 20.4893C14.2443 20.6012 14.4957 20.5254 14.6036 20.3256C14.6039 20.3249 14.6045 20.3244 14.6048 20.3237L14.9779 19.6305V19.6303C14.9779 19.6303 14.9779 19.6303 14.9779 19.6301L15.0897 19.4227C15.1315 19.3448 15.2583 19.1094 14.9018 18.8566ZM14.7776 13.9022C14.8027 13.825 14.7582 13.7385 14.6803 13.7136L13.5183 13.341C13.5022 13.3358 13.4871 13.3338 13.4731 13.3338C13.4425 13.3338 13.4178 13.3434 13.4033 13.3508C13.3824 13.3615 13.3446 13.387 13.3283 13.4377L11.8201 18.0832C11.795 18.1606 11.8396 18.2471 11.9173 18.272L13.0794 18.6445C13.1306 18.6611 13.1735 18.6455 13.1944 18.635C13.2153 18.6243 13.253 18.5987 13.2694 18.5481L13.5316 17.7402C13.541 17.7077 13.549 17.675 13.5595 17.6428C13.5632 17.6316 13.5689 17.6218 13.5735 17.6113L14.7776 13.9022ZM20.7421 22.8958V22.2269C20.7394 22.2272 20.7367 22.2283 20.734 22.2285C20.7405 22.4148 20.6965 22.5991 20.6112 22.7604C20.4269 23.1096 20.0891 23.3046 19.7291 23.3046C19.5725 23.3046 19.4116 23.2671 19.2573 23.1897V24.5354C20.0906 24.4486 20.7421 23.7464 20.7421 22.8958ZM23.57 18.5991C23.3185 18.2193 22.2346 17.687 21.517 17.3349C21.1936 17.1762 20.9145 17.0392 20.7087 16.9206C20.6934 16.9118 20.6788 16.9018 20.665 16.8911C20.3294 16.6275 19.9099 16.7645 19.2535 17.0106C18.4328 17.3178 17.3083 17.7375 16.3989 16.5225C16.3222 16.4196 16.3052 16.2845 16.354 16.1661C16.4761 15.8701 16.8244 15.5212 17.3825 14.9766C17.5106 14.8514 17.6421 14.7231 17.7699 14.5948C17.8744 14.4898 17.9795 14.3915 18.0845 14.2998C17.4903 14.0465 17.0099 14.1416 16.4694 14.2482C16.1293 14.3154 15.7803 14.383 15.4006 14.3602L14.2351 17.9499C14.2093 18.0415 14.1879 18.1339 14.175 18.2268C14.2432 18.1902 14.3158 18.1601 14.3918 18.1373C14.6861 18.048 14.9965 18.0789 15.2664 18.2224C15.2831 18.2312 15.299 18.2413 15.314 18.2525C15.6171 18.4639 15.803 18.74 15.8597 19.0352C16.0839 19.0096 16.3181 19.0488 16.5323 19.1625C16.8019 19.3057 16.9996 19.5459 17.0885 19.8381C17.1014 19.8801 17.1117 19.9227 17.1196 19.9654C17.3474 19.9362 17.5864 19.9751 17.8042 20.0906C18.0712 20.2327 18.2572 20.4656 18.3477 20.7303C18.4528 20.5801 18.6552 20.5281 18.8214 20.616L20.0393 21.2659C20.0603 21.2726 20.0809 21.2806 20.1009 21.2913C20.1014 21.2913 20.1016 21.2916 20.1021 21.2918L20.4062 21.4536C20.5094 21.5082 20.6282 21.5194 20.7417 21.4857C20.8548 21.4514 20.9475 21.3764 21.0025 21.274C21.0577 21.1714 21.0692 21.0531 21.035 20.9406C21.0006 20.8284 20.9253 20.7365 20.823 20.6816L20.8221 20.6812C20.8096 20.6745 20.7989 20.6659 20.7875 20.6581L19.3808 19.9105C19.202 19.8158 19.1346 19.5946 19.2302 19.417C19.3255 19.239 19.549 19.1718 19.7269 19.2673L21.1703 20.0343C21.1827 20.0409 21.1932 20.0494 21.2045 20.0571L21.8023 20.375C22.0213 20.4907 22.2942 20.4087 22.4111 20.1914C22.5239 19.9816 22.4493 19.7223 22.2467 19.6002L20.2644 18.531C20.0864 18.4348 20.0201 18.2134 20.117 18.0362C20.2138 17.8592 20.4365 17.7941 20.6149 17.8896L22.5546 18.9359C22.5606 18.9387 22.5668 18.9402 22.5727 18.9433L23.1755 19.2638C23.4174 19.3919 23.507 19.2957 23.5407 19.2588C23.6684 19.1196 23.7084 18.8077 23.57 18.5991ZM26.2561 17.9364L24.5459 13.3606C24.5273 13.3105 24.4885 13.2866 24.467 13.2769C24.4534 13.2707 24.4307 13.2629 24.4032 13.2629C24.3874 13.2629 24.3702 13.2653 24.3521 13.272L23.2074 13.6945C23.157 13.713 23.1328 13.7515 23.123 13.7729C23.1132 13.7943 23.0996 13.8375 23.1182 13.8874L24.8285 18.4631C24.8471 18.5132 24.8858 18.5372 24.9073 18.547C24.9286 18.5565 24.9723 18.57 25.0225 18.5517L26.1669 18.1292C26.2173 18.1107 26.2415 18.0722 26.2513 18.0508C26.2612 18.0295 26.2747 17.9863 26.2561 17.9364Z" fill="#E3433C"/>
</svg>
