<svg width="30" height="30" viewBox="0 0 30 30" fill="none" xmlns="http://www.w3.org/2000/svg">
<path d="M0.0398786 20.8039C0.0573789 21.0239 0.216882 21.2064 0.432886 21.2529L2.17542 21.6289C2.23692 21.9259 2.31492 22.2189 2.40942 22.5049L1.0904 23.6999C0.926895 23.8479 0.879894 24.086 0.974895 24.2855C1.2159 24.7925 1.4844 25.261 1.77291 25.678C1.89791 25.859 2.12692 25.937 2.33742 25.8695L4.03095 25.324C4.23345 25.551 4.44896 25.7665 4.67596 25.969L4.13045 27.6625C4.06295 27.872 4.14045 28.1015 4.32196 28.227C4.73896 28.5155 5.20747 28.784 5.71448 29.025C5.91448 29.12 6.15199 29.0725 6.29999 28.9095L7.49501 27.5905C7.78152 27.6845 8.07452 27.763 8.37153 27.8245L8.74754 29.5671C8.79404 29.7826 8.97654 29.9421 9.19604 29.9601C9.46205 29.9811 9.72855 30.0001 10.0001 30.0001C10.2716 30.0001 10.5381 29.9811 10.8041 29.9601C11.0241 29.9426 11.2066 29.7831 11.2531 29.5671L11.6291 27.8245C11.9261 27.763 12.2196 27.685 12.5056 27.5905L13.7006 28.9095C13.8491 29.073 14.0871 29.1205 14.2861 29.025C14.7931 28.784 15.2617 28.515 15.6787 28.227C15.8602 28.1015 15.9377 27.872 15.8702 27.6625L15.3247 25.969C15.5517 25.7665 15.7672 25.551 15.9697 25.3245L17.6632 25.87C17.8727 25.938 18.1022 25.86 18.2277 25.6785C18.5162 25.2615 18.7847 24.793 19.0257 24.286C19.1207 24.0865 19.0737 23.8484 18.9102 23.7004L17.5912 22.5054C17.6852 22.2189 17.7637 21.9259 17.8252 21.6289L19.5677 21.2529C19.7832 21.2064 19.9427 21.0239 19.9607 20.8044C19.9812 20.5379 20.0002 20.2714 20.0002 19.9999C20.0002 19.7284 19.9812 19.4619 19.9602 19.1959C19.9427 18.9759 19.7832 18.7934 19.5672 18.7469L17.8247 18.3709C17.7632 18.0738 17.6852 17.7803 17.5907 17.4943L18.9097 16.2993C19.0732 16.1513 19.1202 15.9133 19.0252 15.7138C18.7842 15.2068 18.5152 14.7383 18.2272 14.3213C18.1017 14.1398 17.8722 14.0618 17.6627 14.1298L15.9692 14.6753C15.7667 14.4483 15.5512 14.2328 15.3242 14.0303L15.8697 12.3367C15.9372 12.1272 15.8597 11.8977 15.6782 11.7722C15.2612 11.4837 14.7926 11.2152 14.2856 10.9742C14.0856 10.8787 13.8481 10.9262 13.7001 11.0897L12.5051 12.4087C12.2186 12.3147 11.9256 12.2362 11.6286 12.1747L11.2526 10.4322C11.2061 10.2167 11.0236 10.0572 10.8041 10.0392C10.2716 9.9962 9.72805 9.9972 9.19554 10.0392C8.97554 10.0567 8.79304 10.2162 8.74654 10.4322L8.37053 12.1747C8.07352 12.2362 7.78052 12.3142 7.49451 12.4087L6.29949 11.0897C6.15149 10.9262 5.91398 10.8792 5.71398 10.9742C5.20697 11.2152 4.73846 11.4837 4.32146 11.7722C4.13995 11.8977 4.06245 12.1272 4.12995 12.3367L4.67546 14.0303C4.44846 14.2328 4.23295 14.4483 4.03045 14.6753L2.33742 14.1298C2.12742 14.0618 1.89791 14.1398 1.77291 14.3213C1.4844 14.7383 1.2159 15.2068 0.974895 15.7138C0.879894 15.9133 0.926895 16.1513 1.0904 16.2993L2.40942 17.4943C2.31542 17.7808 2.23692 18.0738 2.17542 18.3709L0.432886 18.7469C0.217382 18.7934 0.0578789 18.9759 0.0398786 19.1954C0.0188782 19.4619 -0.00012207 19.7284 -0.00012207 19.9999C-0.00012207 20.2714 0.0188782 20.5379 0.0398786 20.8039ZM1.0104 19.6454L2.71143 19.2779C2.91243 19.2344 3.06643 19.0724 3.09943 18.8694C3.17444 18.4084 3.29544 17.9558 3.45894 17.5238C3.53194 17.3318 3.47944 17.1143 3.32694 16.9763L2.04241 15.8123C2.15442 15.5978 2.27142 15.3923 2.39242 15.1978L4.04045 15.7288C4.23545 15.7913 4.45046 15.7288 4.58096 15.5698C4.87597 15.2088 5.20897 14.8763 5.56998 14.5808C5.72898 14.4508 5.79248 14.2363 5.72898 14.0403L5.19797 12.3922C5.39248 12.2707 5.59748 12.1537 5.81248 12.0422L6.9765 13.3273C7.11501 13.4798 7.33301 13.5323 7.52451 13.4593C7.95552 13.2958 8.40803 13.1748 8.86954 13.0998C9.07254 13.0668 9.23454 12.9128 9.27804 12.7117L9.64505 11.0107C9.88056 10.9982 10.1201 10.9977 10.3546 11.0107L10.7221 12.7117C10.7656 12.9128 10.9276 13.0668 11.1306 13.0998C11.5916 13.1748 12.0441 13.2958 12.4761 13.4593C12.6671 13.5323 12.8851 13.4803 13.0236 13.3273L14.1876 12.0427C14.4021 12.1547 14.6076 12.2717 14.8021 12.3927L14.2711 14.0408C14.2081 14.2368 14.2711 14.4508 14.4301 14.5813C14.7911 14.8763 15.1237 15.2093 15.4192 15.5703C15.5497 15.7298 15.7642 15.7933 15.9597 15.7293L17.6077 15.1983C17.7292 15.3928 17.8462 15.5978 17.9577 15.8123L16.6727 16.9763C16.5202 17.1143 16.4677 17.3318 16.5407 17.5243C16.7042 17.9553 16.8252 18.4079 16.9002 18.8694C16.9332 19.0724 17.0872 19.2344 17.2882 19.2779L18.9892 19.6449C18.9957 19.7624 19.0002 19.8809 19.0002 19.9999C19.0002 20.1189 18.9962 20.2374 18.9897 20.3544L17.2887 20.7219C17.0877 20.7654 16.9337 20.9274 16.9007 21.1304C16.8257 21.5914 16.7047 22.0439 16.5412 22.4759C16.4682 22.6679 16.5207 22.8854 16.6732 23.0234L17.9577 24.1875C17.8457 24.402 17.7287 24.6075 17.6077 24.802L15.9597 24.271C15.7632 24.207 15.5497 24.2705 15.4192 24.43C15.1247 24.79 14.7916 25.123 14.4301 25.419C14.2711 25.549 14.2081 25.7635 14.2711 25.959L14.8021 27.607C14.6076 27.7285 14.4026 27.8455 14.1881 27.957L13.0241 26.672C12.8861 26.5195 12.6686 26.468 12.4761 26.54C12.0451 26.7035 11.5926 26.8245 11.1311 26.8995C10.9281 26.9325 10.7661 27.0865 10.7226 27.2875L10.3556 28.9885C10.1201 29.001 9.88056 29.0015 9.64605 28.9885L9.27854 27.2875C9.23504 27.0865 9.07304 26.9325 8.87004 26.8995C8.40903 26.8245 7.95652 26.7035 7.52451 26.54C7.33301 26.467 7.11501 26.519 6.977 26.672L5.81298 27.9565C5.59848 27.8445 5.39298 27.7275 5.19847 27.6065L5.72948 25.9585C5.79248 25.7625 5.72948 25.5485 5.57048 25.418C5.20947 25.123 4.87697 24.79 4.58146 24.429C4.45096 24.2695 4.23595 24.2065 4.04095 24.27L2.39292 24.801C2.27142 24.6065 2.15442 24.4015 2.04291 24.1865L3.32794 23.0224C3.48044 22.8844 3.53294 22.6669 3.45994 22.4744C3.29644 22.0434 3.17544 21.5909 3.10043 21.1294C3.06743 20.9264 2.91343 20.7644 2.71243 20.7209L1.0104 20.3549C1.0044 20.2374 0.999896 20.1189 0.999896 19.9999C0.999896 19.8809 1.0039 19.7624 1.0104 19.6454Z" fill="#E3433C"/>
<path d="M26.1098 7.11713C26.2978 7.05813 26.4338 6.89363 26.4563 6.69763C26.4863 6.44512 26.5003 6.21662 26.5003 5.99961C26.5003 5.78261 26.4863 5.55411 26.4568 5.3016C26.4343 5.1056 26.2983 4.9411 26.1103 4.88209L24.7238 4.44659C24.6823 4.33308 24.6363 4.22158 24.5858 4.11258L25.2578 2.82506C25.3488 2.65055 25.3288 2.43855 25.2068 2.28355C24.9173 1.91754 24.5843 1.58453 24.2173 1.29403C24.0623 1.17153 23.8503 1.15203 23.6758 1.24253L22.3873 1.91454C22.2783 1.86454 22.1668 1.81854 22.0533 1.77704L21.6178 0.390513C21.5587 0.20251 21.3942 0.0665071 21.1982 0.0440067C20.6922 -0.0149944 20.3077 -0.0149944 19.8017 0.0440067C19.6057 0.0665071 19.4412 0.20251 19.3822 0.390513L18.9467 1.77704C18.8332 1.81854 18.7217 1.86454 18.6127 1.91504L17.3252 1.24303C17.1507 1.15253 16.9392 1.17203 16.7837 1.29403C16.4177 1.58353 16.0847 1.91654 15.7941 2.28355C15.6716 2.43855 15.6516 2.65005 15.7426 2.82506L16.4142 4.11258C16.3642 4.22158 16.3182 4.33308 16.2767 4.44659L14.8901 4.88209C14.7021 4.9411 14.5661 5.1056 14.5436 5.3016C14.5141 5.55411 14.5001 5.78261 14.5001 5.99961C14.5001 6.21662 14.5141 6.44512 14.5436 6.69763C14.5661 6.89363 14.7021 7.05813 14.8901 7.11713L16.2767 7.55264C16.3182 7.66614 16.3642 7.77765 16.4147 7.88665L15.7426 9.17417C15.6516 9.34867 15.6716 9.56068 15.7936 9.71568C16.0832 10.0817 16.4162 10.4147 16.7832 10.7052C16.9377 10.8277 17.1502 10.8472 17.3247 10.7567L18.6122 10.0852C18.7212 10.1352 18.8327 10.1812 18.9462 10.2227L19.3817 11.6092C19.4407 11.7972 19.6052 11.9332 19.8012 11.9557C20.0547 11.9857 20.2832 11.9997 20.5002 11.9997C20.7172 11.9997 20.9457 11.9857 21.1982 11.9562C21.3942 11.9337 21.5587 11.7977 21.6178 11.6097L22.0533 10.2232C22.1668 10.1817 22.2783 10.1357 22.3873 10.0852L23.6748 10.7572C23.8493 10.8482 24.0613 10.8287 24.2163 10.7062C24.5823 10.4167 24.9153 10.0837 25.2058 9.71668C25.3283 9.56168 25.3483 9.35017 25.2573 9.17517L24.5853 7.88765C24.6358 7.77865 24.6818 7.66714 24.7233 7.55364L26.1098 7.11713ZM24.1798 6.67513C24.0218 6.72513 23.8988 6.84963 23.8508 7.00863C23.7828 7.23464 23.6928 7.45214 23.5838 7.65564C23.5053 7.80165 23.5038 7.97715 23.5808 8.12365L24.2153 9.33967C24.0968 9.47118 23.9713 9.59668 23.8403 9.71468L22.6243 9.08017C22.4773 9.00317 22.3018 9.00517 22.1563 9.08317C21.9528 9.19217 21.7353 9.28217 21.5092 9.35017C21.3507 9.39768 21.2257 9.52118 21.1757 9.67918L20.7637 10.9912C20.5812 11.0022 20.4197 11.0022 20.2367 10.9912L19.8247 9.67918C19.7747 9.52118 19.6502 9.39818 19.4912 9.35017C19.2647 9.28217 19.0472 9.19217 18.8447 9.08317C18.6987 9.00467 18.5232 9.00317 18.3762 9.08017L17.1602 9.71468C17.0287 9.59618 16.9032 9.47068 16.7852 9.33967L17.4197 8.12365C17.4962 7.97715 17.4952 7.80115 17.4167 7.65564C17.3077 7.45214 17.2177 7.23464 17.1497 7.00863C17.1022 6.85013 16.9787 6.72513 16.8207 6.67513L15.5086 6.26312C15.5026 6.17162 15.5001 6.08412 15.5001 5.99961C15.5001 5.91511 15.5026 5.82761 15.5086 5.73611L16.8207 5.3241C16.9787 5.2741 17.1017 5.1496 17.1497 4.9906C17.2177 4.76409 17.3077 4.54659 17.4167 4.34408C17.4952 4.19808 17.4967 4.02258 17.4197 3.87558L16.7852 2.65955C16.9037 2.52805 17.0292 2.40255 17.1602 2.28455L18.3762 2.91906C18.5227 2.99556 18.6987 2.99406 18.8442 2.91606C19.0477 2.80706 19.2652 2.71705 19.4912 2.64905C19.6497 2.60155 19.7747 2.47805 19.8247 2.32005L20.2367 1.00802C20.4192 0.997024 20.5807 0.997024 20.7637 1.00802L21.1757 2.32005C21.2257 2.47805 21.3502 2.60105 21.5092 2.64905C21.7358 2.71705 21.9533 2.80706 22.1558 2.91606C22.3018 2.99456 22.4773 2.99606 22.6243 2.91906L23.8403 2.28455C23.9718 2.40305 24.0973 2.52855 24.2153 2.65955L23.5808 3.87558C23.5043 4.02208 23.5053 4.19808 23.5838 4.34358C23.6928 4.54709 23.7828 4.76459 23.8508 4.9906C23.8983 5.1491 24.0218 5.2741 24.1798 5.3241L25.4918 5.73611C25.4978 5.82761 25.5003 5.91511 25.5003 5.99961C25.5003 6.08412 25.4978 6.17162 25.4918 6.26312L24.1798 6.67513Z" fill="#E3433C"/>
<path d="M29.6312 16.4819L28.7722 16.1769C28.7232 16.0374 28.6672 15.9009 28.6037 15.7684L28.9942 14.9459C29.0757 14.7749 29.0532 14.5729 28.9362 14.4239C28.6862 14.1044 28.3972 13.8149 28.0767 13.5639C27.9272 13.4469 27.7242 13.4249 27.5542 13.5059L26.7312 13.8964C26.5992 13.8334 26.4627 13.7769 26.3232 13.7284L26.0177 12.8694C25.9542 12.6909 25.7947 12.5634 25.6067 12.5404C25.1612 12.4869 24.8386 12.4869 24.3931 12.5404C24.2051 12.5629 24.0456 12.6904 23.9821 12.8694L23.6771 13.7284C23.5376 13.7774 23.4011 13.8334 23.2686 13.8969L22.4461 13.5064C22.2761 13.4254 22.0736 13.4479 21.9241 13.5644C21.6046 13.8144 21.3151 14.1034 21.0641 14.4239C20.9476 14.5729 20.9251 14.7754 21.0061 14.9464L21.3966 15.7694C21.3336 15.9014 21.2771 16.0379 21.2286 16.1774L20.3696 16.4829C20.1911 16.5464 20.0636 16.7059 20.0406 16.8939C20.0131 17.1155 20.0001 17.314 20.0001 17.5C20.0001 17.686 20.0131 17.884 20.0401 18.1065C20.0626 18.2945 20.1901 18.454 20.3691 18.5175L21.2281 18.8225C21.2771 18.962 21.3331 19.0985 21.3966 19.231L21.0061 20.0535C20.9246 20.2245 20.9471 20.4265 21.0641 20.5755C21.3141 20.895 21.6031 21.1845 21.9236 21.4355C22.0726 21.552 22.2756 21.5745 22.4461 21.4935L23.2691 21.103C23.4011 21.166 23.5376 21.2225 23.6771 21.271L23.9826 22.13C24.0461 22.3085 24.2056 22.436 24.3936 22.459C24.6161 22.487 24.8141 22.5 25.0002 22.5C25.1862 22.5 25.3842 22.487 25.6067 22.46C25.7947 22.4375 25.9542 22.31 26.0177 22.131L26.3227 21.272C26.4622 21.223 26.5987 21.167 26.7312 21.1035L27.5537 21.494C27.7242 21.5755 27.9272 21.5535 28.0757 21.436C28.3952 21.186 28.6847 20.897 28.9357 20.5765C29.0522 20.4275 29.0747 20.225 28.9937 20.054L28.6032 19.231C28.6662 19.099 28.7227 18.9625 28.7712 18.823L29.6302 18.5175C29.8087 18.454 29.9362 18.2945 29.9592 18.1065C29.9872 17.884 30.0002 17.686 30.0002 17.5C30.0002 17.314 29.9872 17.116 29.9602 16.8934C29.9377 16.7049 29.8102 16.5459 29.6312 16.4819ZM28.9952 17.6825L28.2027 17.964C28.0492 18.0185 27.9317 18.1445 27.8882 18.3015C27.8227 18.539 27.7292 18.7655 27.6107 18.975C27.5307 19.1165 27.5247 19.2885 27.5942 19.4355L27.9532 20.192C27.8702 20.283 27.7832 20.37 27.6927 20.4525L26.9362 20.0935C26.7902 20.024 26.6177 20.03 26.4757 20.11C26.2657 20.229 26.0392 20.322 25.8027 20.3875C25.6457 20.431 25.5197 20.5485 25.4647 20.702L25.1832 21.4945C25.0622 21.501 24.9392 21.501 24.8181 21.4945L24.5366 20.702C24.4821 20.5485 24.3561 20.431 24.1991 20.3875C23.9616 20.322 23.7351 20.2285 23.5256 20.11C23.3841 20.0305 23.2126 20.0245 23.0651 20.0935L22.3086 20.4525C22.2176 20.3695 22.1306 20.2825 22.0481 20.192L22.4071 19.4355C22.4771 19.2885 22.4706 19.1165 22.3906 18.975C22.2716 18.765 22.1786 18.5385 22.1131 18.302C22.0696 18.145 21.9521 18.019 21.7986 17.964L21.0061 17.6825C21.0021 17.622 21.0001 17.5615 21.0001 17.5C21.0001 17.4385 21.0021 17.3775 21.0051 17.3175L21.7976 17.0355C21.9511 16.9809 22.0686 16.8549 22.1116 16.6979C22.1776 16.4599 22.2711 16.2339 22.3896 16.0244C22.4696 15.8829 22.4756 15.7109 22.4061 15.5639L22.0471 14.8074C22.1301 14.7164 22.2171 14.6294 22.3076 14.5469L23.0641 14.9059C23.2111 14.9759 23.3831 14.9699 23.5246 14.8894C23.7346 14.7704 23.9611 14.6774 24.1976 14.6119C24.3546 14.5684 24.4806 14.4509 24.5356 14.2974L24.8171 13.5049C24.9381 13.4984 25.0612 13.4984 25.1822 13.5049L25.4637 14.2974C25.5182 14.4509 25.6442 14.5684 25.8012 14.6119C26.0387 14.6774 26.2652 14.7709 26.4747 14.8894C26.6167 14.9699 26.7882 14.9759 26.9352 14.9059L27.6917 14.5469C27.7827 14.6299 27.8697 14.7169 27.9522 14.8074L27.5932 15.5639C27.5232 15.7109 27.5297 15.8829 27.6097 16.0244C27.7287 16.2344 27.8217 16.4609 27.8872 16.6974C27.9307 16.8544 28.0482 16.9804 28.2017 17.0355L28.9942 17.317C28.9982 17.378 29.0002 17.4385 29.0002 17.5C29.0002 17.5615 28.9982 17.622 28.9952 17.6825Z" fill="#E3433C"/>
<path d="M9.99992 25.5002C13.0325 25.5002 15.5 23.0327 15.5 20.0001C15.5 16.9675 13.0325 14.5 9.99992 14.5C6.96736 14.5 4.49982 16.9675 4.49982 20.0001C4.49982 23.0327 6.96736 25.5002 9.99992 25.5002ZM9.99992 15.5C12.481 15.5 14.5 17.5191 14.5 20.0001C14.5 22.4811 12.481 24.5002 9.99992 24.5002C7.51887 24.5002 5.49983 22.4811 5.49983 20.0001C5.49983 17.5191 7.51887 15.5 9.99992 15.5Z" fill="#E3433C"/>
<path d="M0.0108643 11.6791L0.778878 12.3196C3.06842 9.57407 6.42898 7.99954 10 7.99954C10.2545 7.99954 10.5086 8.01404 10.7626 8.03004L10.1465 8.64605L10.8536 9.35306L12.3536 7.85304C12.5491 7.65753 12.5491 7.34153 12.3536 7.14602L10.8536 5.646L10.1465 6.35301L10.8261 7.03252C10.5511 7.01502 10.2755 6.99952 10 6.99952C6.13197 6.99952 2.49091 8.70505 0.0108643 11.6791Z" fill="#E3433C"/>
<path d="M20.5002 3.49951C19.1216 3.49951 18.0001 4.62103 18.0001 5.99956C18.0001 7.37808 19.1216 8.4996 20.5002 8.4996C21.8787 8.4996 23.0002 7.37808 23.0002 5.99956C23.0002 4.62103 21.8787 3.49951 20.5002 3.49951ZM20.5002 7.49958C19.6732 7.49958 19.0001 6.82657 19.0001 5.99956C19.0001 5.17254 19.6732 4.49953 20.5002 4.49953C21.3272 4.49953 22.0002 5.17254 22.0002 5.99956C22.0002 6.82657 21.3272 7.49958 20.5002 7.49958Z" fill="#E3433C"/>
<path d="M25.0002 15.4998C23.8972 15.4998 23.0002 16.3968 23.0002 17.4998C23.0002 18.6028 23.8972 19.4998 25.0002 19.4998C26.1032 19.4998 27.0003 18.6028 27.0003 17.4998C27.0003 16.3968 26.1032 15.4998 25.0002 15.4998ZM25.0002 18.4998C24.4487 18.4998 24.0002 18.0513 24.0002 17.4998C24.0002 16.9483 24.4487 16.4998 25.0002 16.4998C25.5517 16.4998 26.0002 16.9483 26.0002 17.4998C26.0002 18.0513 25.5517 18.4998 25.0002 18.4998Z" fill="#E3433C"/>
<path d="M29.5984 1.50956L27.0983 1.00956C26.8263 0.954555 26.5638 1.13106 26.5098 1.40156L26.0098 3.90161L26.9903 4.09811L27.2598 2.75209C27.7444 3.76011 28.0004 4.87113 28.0004 5.99965C28.0004 7.72368 27.4314 9.34471 26.3553 10.6872L27.1358 11.3127C28.3384 9.81221 29.0004 7.92568 29.0004 5.99965C29.0004 4.69012 28.6979 3.3991 28.1224 2.23408L29.4024 2.49008L29.5984 1.50956Z" fill="#E3433C"/>
</svg>
