<svg width="28" height="28" viewBox="0 0 28 28" fill="none" xmlns="http://www.w3.org/2000/svg">
<path d="M13.8227 7.07182C14.5394 7.07182 15.1222 6.48884 15.1222 5.77234C15.1222 5.05564 14.5392 4.47266 13.8227 4.47266C13.1062 4.47266 12.5232 5.05564 12.5232 5.77234C12.5232 6.48884 13.1062 7.07182 13.8227 7.07182ZM13.8227 5.28259C14.0927 5.28259 14.3122 5.50237 14.3122 5.77234C14.3122 6.04211 14.0927 6.26189 13.8227 6.26189C13.5527 6.26189 13.3332 6.04232 13.3332 5.77234C13.3332 5.50237 13.5527 5.28259 13.8227 5.28259Z" fill="#E3433C"/>
<path d="M27.2407 24.8791H26.7511V23.495C26.7511 23.2715 26.5697 23.0901 26.3462 23.0901H24.9621V21.706C24.9621 21.4824 24.7809 21.3011 24.5572 21.3011H24.0678V12.4388H24.5572C24.7809 12.4388 24.9621 12.2574 24.9621 12.0339V10.6498H26.3462C26.57 10.6498 26.7511 10.4684 26.7511 10.2449V8.45583C26.7511 8.23225 26.57 8.05086 26.3462 8.05086H25.5782L14.0533 0.0719764C13.9148 -0.0239921 13.7311 -0.0239921 13.5923 0.0719764L2.06762 8.05086H1.29945C1.07587 8.05086 0.89448 8.23204 0.89448 8.45583V10.2449C0.89448 10.4684 1.07587 10.6498 1.29945 10.6498H2.6835V12.0339C2.6835 12.2574 2.86489 12.4388 3.08847 12.4388H3.57801V21.3011H3.08847C2.86489 21.3011 2.6835 21.4822 2.6835 21.706V23.0901H1.29945C1.07587 23.0901 0.89448 23.2715 0.89448 23.495V24.8791H0.404936C0.18115 24.8791 -3.05176e-05 25.0603 -3.05176e-05 25.2841V27.0729C-3.05176e-05 27.2967 0.18115 27.4778 0.404936 27.4778H27.2407C27.4645 27.4778 27.6457 27.2967 27.6457 27.0729V25.2841C27.6457 25.0605 27.4645 24.8791 27.2407 24.8791ZM24.1522 23.0901H20.4896V22.111H24.1522V23.0901ZM21.3839 21.3011V12.4388H23.2577V21.3011H21.3839ZM24.1522 11.6289H20.4896V10.6498H24.1522V11.6289ZM20.0846 12.4388H20.5739V21.3011H20.0846C19.8608 21.3011 19.6796 21.4822 19.6796 21.706V23.0901H16.4642V21.706C16.4642 21.4822 16.2828 21.3011 16.0592 21.3011H15.5696V12.4388H16.0592C16.2828 12.4388 16.4642 12.2574 16.4642 12.0339V10.6498H19.6796V12.0339C19.6796 12.2574 19.8608 12.4388 20.0846 12.4388ZM11.9916 10.6498H15.6542V11.6289H11.9916V10.6498ZM12.8859 12.4388H14.7597V21.3011H12.8859V12.4388ZM15.6542 22.111V23.0901H11.9916V22.111H15.6542ZM1.70441 8.8608H2.19417H2.19459H2.1948H8.77149C8.99528 8.8608 9.17646 8.6794 9.17646 8.45583C9.17646 8.23204 8.99528 8.05086 8.77149 8.05086H3.49048L13.8228 0.897517L24.1554 8.05086H10.3914C10.1678 8.05086 9.98639 8.23204 9.98639 8.45583C9.98639 8.6794 10.1678 8.8608 10.3914 8.8608H25.4462H25.4474H25.9412V9.83988H1.70441V8.8608ZM3.49343 10.6498H7.15627V11.6289H3.49343V10.6498ZM6.26176 12.4388V21.3011H4.38795V12.4388H6.26176ZM3.49343 22.111H7.15627V23.0901H3.49343V22.111ZM7.56123 21.3011H7.07169V12.4388H7.56123C7.78481 12.4388 7.9662 12.2574 7.9662 12.0339V10.6498H11.1817V12.0339C11.1817 12.2574 11.3629 12.4388 11.5866 12.4388H12.076V21.3011H11.5866C11.3629 21.3011 11.1817 21.4822 11.1817 21.706V23.0901H7.9662V21.706C7.9662 21.4822 7.78481 21.3011 7.56123 21.3011ZM1.70441 23.9H25.9412V24.8791H1.70441V23.9ZM26.8357 26.6681H0.809902V25.689H26.8357V26.6681Z" fill="#E3433C"/>
</svg>
