<svg width="5" height="7" viewBox="0 0 5 7" fill="none" xmlns="http://www.w3.org/2000/svg">
<path d="M4.70819 3.22776L1.59224 0.111859C1.52017 0.0397343 1.42396 0 1.32138 0C1.2188 0 1.1226 0.0397343 1.05053 0.111859L0.821062 0.341271C0.671745 0.490759 0.671745 0.733719 0.821062 0.882978L3.43761 3.49952L0.818158 6.11897C0.74609 6.19109 0.706299 6.28724 0.706299 6.38977C0.706299 6.4924 0.74609 6.58855 0.818158 6.66073L1.04763 6.89009C1.11975 6.96221 1.2159 7.00195 1.31848 7.00195C1.42106 7.00195 1.51727 6.96221 1.58933 6.89009L4.70819 3.77134C4.78043 3.69899 4.82011 3.60239 4.81988 3.49969C4.82011 3.3966 4.78043 3.30005 4.70819 3.22776Z" fill="white"/>
</svg>
