<svg width="25" height="25" viewBox="0 0 25 25" fill="none" xmlns="http://www.w3.org/2000/svg">
<path d="M14.2908 10.3665H11.008C10.7562 10.3665 10.5521 10.5706 10.5521 10.8224V14.1052C10.5521 14.357 10.7562 14.5612 11.008 14.5612H14.2908C14.5426 14.5612 14.7468 14.357 14.7468 14.1052V10.8224C14.7468 10.5706 14.5426 10.3665 14.2908 10.3665ZM13.8349 13.6493H11.464V11.2783H13.8349V13.6493Z" fill="white" stroke="white" stroke-width="0.303685"/>
<path d="M22.7713 3.25354C21.9165 3.25354 21.2211 3.94895 21.2211 4.80375C21.2211 5.65856 21.9165 6.35397 22.7713 6.35397C23.6261 6.35397 24.3215 5.65856 24.3215 4.80375C24.3215 3.94895 23.6261 3.25354 22.7713 3.25354ZM22.7713 5.44208C22.4193 5.44208 22.133 5.15574 22.133 4.80375C22.133 4.45176 22.4193 4.16543 22.7713 4.16543C23.1233 4.16543 23.4096 4.45176 23.4096 4.80375C23.4096 5.15574 23.1233 5.44208 22.7713 5.44208Z" fill="white" stroke="white" stroke-width="0.303685"/>
<path d="M20.4276 4.48003C20.3428 4.39527 20.2252 4.34644 20.1052 4.34644C19.9849 4.34644 19.8672 4.39522 19.7824 4.48003C19.6976 4.56483 19.6493 4.68247 19.6493 4.80238C19.6493 4.92229 19.6976 5.03993 19.7824 5.12473C19.8677 5.20949 19.9849 5.25833 20.1052 5.25833C20.2252 5.25833 20.3428 5.20954 20.4276 5.12473C20.5124 5.03993 20.5612 4.92229 20.5612 4.80238C20.5612 4.68247 20.5124 4.56483 20.4276 4.48003Z" fill="white" stroke="white" stroke-width="0.303685"/>
<path d="M19.9232 12.9196C20.1184 13.5526 20.7088 14.0139 21.4049 14.0139C22.2597 14.0139 22.9551 13.3185 22.9551 12.4637C22.9551 11.6089 22.2597 10.9135 21.4049 10.9135C20.7087 10.9135 20.1184 11.3748 19.9232 12.0078H17.1176V8.45138C17.1176 8.19961 16.9135 7.99544 16.6617 7.99544H15.9321V5.2584H18.4864C18.7383 5.2584 18.9424 5.05423 18.9424 4.80245C18.9424 4.55068 18.7383 4.34651 18.4864 4.34651H15.4762C15.2244 4.34651 15.0203 4.55068 15.0203 4.80245V7.99544H13.1053V5.18987C13.7382 4.99468 14.1996 4.40437 14.1996 3.70818C14.1996 2.85338 13.5041 2.15797 12.6493 2.15797C11.7945 2.15797 11.0991 2.85338 11.0991 3.70818C11.0991 4.40437 11.5605 4.99472 12.1934 5.18987V7.99544H8.63702C8.3852 7.99544 8.18108 8.19961 8.18108 8.45138V9.18089H5.44399V3.82381C6.07767 3.62908 6.53968 3.0384 6.53968 2.34172C6.53968 1.48691 5.84427 0.791504 4.98946 0.791504C4.13466 0.791504 3.43925 1.48691 3.43925 2.34172C3.43925 3.0374 3.89989 3.62739 4.5321 3.82299V9.63684C4.5321 9.88861 4.73623 10.0928 4.98805 10.0928H8.18108V12.0078H5.37547C5.18027 11.3748 4.58992 10.9135 3.89378 10.9135C3.03897 10.9135 2.34357 11.6089 2.34357 12.4637C2.34357 13.3185 3.03897 14.0139 3.89378 14.0139C4.58996 14.0139 5.18032 13.5526 5.37547 12.9196H8.18108V16.476C8.18108 16.7278 8.3852 16.932 8.63702 16.932H9.36654V19.669H6.81224C6.56042 19.669 6.35629 19.8732 6.35629 20.1249C6.35629 20.3767 6.56042 20.5809 6.81224 20.5809H9.82248C10.0743 20.5809 10.2784 20.3767 10.2784 20.1249V16.932H12.1934V19.7375C11.5605 19.9327 11.0991 20.523 11.0991 21.2192C11.0991 22.074 11.7945 22.7694 12.6493 22.7694C13.5041 22.7694 14.1996 22.074 14.1996 21.2192C14.1996 20.523 13.7382 19.9327 13.1053 19.7375V16.932H16.6617C16.9135 16.932 17.1176 16.7278 17.1176 16.476V15.7465H19.8547V21.1036C19.221 21.2983 18.759 21.889 18.759 22.5857C18.759 23.4405 19.4544 24.1359 20.3092 24.1359C21.164 24.1359 21.8594 23.4405 21.8594 22.5857C21.8594 21.89 21.3988 21.3 20.7666 21.1044V15.2906C20.7666 15.0388 20.5625 14.8346 20.3106 14.8346H17.1176V12.9196H19.9232ZM21.4049 11.8254C21.7569 11.8254 22.0432 12.1117 22.0432 12.4637C22.0432 12.8157 21.7568 13.102 21.4049 13.102C21.0529 13.102 20.7666 12.8157 20.7666 12.4637C20.7666 12.1117 21.0529 11.8254 21.4049 11.8254ZM4.98946 2.98004C4.63747 2.98004 4.35114 2.69371 4.35114 2.34172C4.35114 1.98973 4.63747 1.70339 4.98946 1.70339C5.34145 1.70339 5.62778 1.98973 5.62778 2.34172C5.62778 2.69371 5.34145 2.98004 4.98946 2.98004ZM3.89378 13.102C3.54179 13.102 3.25546 12.8157 3.25546 12.4637C3.25546 12.1117 3.54179 11.8254 3.89378 11.8254C4.24577 11.8254 4.5321 12.1117 4.5321 12.4637C4.5321 12.8157 4.24577 13.102 3.89378 13.102ZM12.011 3.70818C12.011 3.35619 12.2973 3.06986 12.6493 3.06986C13.0013 3.06986 13.2877 3.35619 13.2877 3.70818C13.2877 4.06017 13.0013 4.34651 12.6493 4.34651C12.2973 4.34651 12.011 4.06017 12.011 3.70818ZM13.2877 21.2192C13.2877 21.5712 13.0013 21.8575 12.6493 21.8575C12.2973 21.8575 12.011 21.5712 12.011 21.2192C12.011 20.8672 12.2973 20.5809 12.6493 20.5809C13.0013 20.5809 13.2877 20.8672 13.2877 21.2192ZM16.2057 16.0201H9.09297V8.90733H16.2057V16.0201ZM20.3092 21.9474C20.6612 21.9474 20.9475 22.2337 20.9475 22.5857C20.9475 22.9377 20.6612 23.224 20.3092 23.224C19.9572 23.224 19.6709 22.9377 19.6709 22.5857C19.6709 22.2337 19.9572 21.9474 20.3092 21.9474Z" fill="white" stroke="white" stroke-width="0.303685"/>
<path d="M2.52739 18.5735C1.67258 18.5735 0.977173 19.2689 0.977173 20.1237C0.977173 20.9785 1.67258 21.6739 2.52739 21.6739C3.38219 21.6739 4.0776 20.9785 4.0776 20.1237C4.0776 19.2689 3.38219 18.5735 2.52739 18.5735ZM2.52739 20.762C2.1754 20.762 1.88906 20.4757 1.88906 20.1237C1.88906 19.7717 2.1754 19.4854 2.52739 19.4854C2.87938 19.4854 3.16571 19.7717 3.16571 20.1237C3.16571 20.4757 2.87938 20.762 2.52739 20.762Z" fill="white" stroke="white" stroke-width="0.303685"/>
<path d="M5.51719 19.8027C5.43238 19.7179 5.31475 19.6691 5.19484 19.6691C5.07492 19.6691 4.95729 19.7178 4.87248 19.8027C4.78768 19.8874 4.73889 20.0051 4.73889 20.125C4.73889 20.2449 4.78768 20.3626 4.87248 20.4473C4.95729 20.5321 5.07492 20.581 5.19484 20.581C5.31475 20.581 5.43238 20.5322 5.51719 20.4473C5.602 20.3626 5.65078 20.2449 5.65078 20.125C5.65078 20.0051 5.602 19.8874 5.51719 19.8027Z" fill="white" stroke="white" stroke-width="0.303685"/>
</svg>
