<svg width="28" height="30" viewBox="0 0 28 30" fill="none" xmlns="http://www.w3.org/2000/svg">
<path d="M20.4788 22.1295C20.1197 22.1295 19.7687 22.236 19.4701 22.4355C19.1715 22.635 18.9388 22.9185 18.8014 23.2503C18.664 23.582 18.628 23.9471 18.6981 24.2993C18.7681 24.6514 18.9411 24.9749 19.195 25.2288C19.4489 25.4827 19.7724 25.6557 20.1246 25.7257C20.4767 25.7958 20.8418 25.7598 21.1735 25.6224C21.5053 25.485 21.7888 25.2523 21.9883 24.9537C22.1878 24.6552 22.2943 24.3041 22.2943 23.9451C22.2938 23.4637 22.1023 23.0022 21.7619 22.6619C21.4216 22.3215 20.9601 22.1301 20.4788 22.1295ZM20.4788 24.8004C20.3096 24.8004 20.1442 24.7502 20.0036 24.6562C19.8629 24.5622 19.7533 24.4287 19.6886 24.2724C19.6238 24.1161 19.6069 23.9441 19.6399 23.7782C19.6729 23.6123 19.7543 23.4599 19.874 23.3403C19.9936 23.2207 20.146 23.1392 20.3119 23.1062C20.4778 23.0732 20.6498 23.0901 20.8061 23.1549C20.9623 23.2196 21.0959 23.3292 21.1899 23.4699C21.2839 23.6105 21.3341 23.7759 21.3341 23.9451C21.3338 24.1718 21.2436 24.3892 21.0833 24.5496C20.9229 24.7099 20.7055 24.8001 20.4788 24.8004Z" fill="white" stroke="white" stroke-width="0.299685"/>
<path d="M26.4782 11.7503C26.2682 11.4712 25.9958 11.245 25.6829 11.0897C25.3699 10.9344 25.025 10.8544 24.6757 10.856H17.7383V3.06234C17.7375 2.40711 17.4769 1.77893 17.0136 1.31561C16.5503 0.852297 15.9221 0.591681 15.2669 0.590942H3.31921C2.66398 0.591681 2.0358 0.852296 1.57248 1.31561C1.10916 1.77893 0.848548 2.40711 0.847809 3.06234V26.9577C0.848548 27.6129 1.10916 28.2411 1.57248 28.7044C2.0358 29.1677 2.66398 29.4283 3.31921 29.4291H15.2669C15.9221 29.4283 16.5503 29.1677 17.0136 28.7044C17.4769 28.2411 17.7375 27.6129 17.7383 26.9577V22.0115H22.9034C23.3992 22.0106 23.881 21.8466 24.2743 21.5447C24.6676 21.2428 24.9507 20.8199 25.0798 20.3412L26.8513 13.7129C26.946 13.3793 26.9615 13.0282 26.8968 12.6875C26.832 12.3468 26.6887 12.0259 26.4782 11.7503ZM12.7985 1.55118L12.5325 2.53926C12.5094 2.62416 12.4651 2.70177 12.4037 2.76472C12.3422 2.82767 12.2657 2.87387 12.1814 2.89895C12.1326 2.91337 12.0819 2.92072 12.031 2.92077H6.55503C6.50504 2.92071 6.4553 2.91363 6.40728 2.89972C6.32239 2.87496 6.24529 2.82881 6.18336 2.7657C6.12143 2.70258 6.07675 2.62462 6.0536 2.53928L5.78759 1.55118H12.7985ZM25.9259 13.4565L24.1523 20.0924C24.0783 20.3672 23.9158 20.6099 23.6901 20.7832C23.4644 20.9565 23.188 21.0507 22.9034 21.0513H16.778L11.6328 21.0513C11.3464 21.0518 11.0677 20.9578 10.8401 20.784C10.6124 20.6102 10.4483 20.3662 10.3733 20.0898L7.83507 10.594C7.70553 10.113 7.4213 9.68788 7.02623 9.38436C6.63116 9.08084 6.1472 8.91573 5.649 8.91452H4.54385C4.41652 8.91452 4.2944 8.9651 4.20436 9.05514C4.11432 9.14518 4.06373 9.2673 4.06373 9.39464C4.06373 9.52197 4.11432 9.64409 4.20436 9.73413C4.2944 9.82417 4.41652 9.87475 4.54385 9.87475H5.649C5.93595 9.87567 6.21462 9.97094 6.44207 10.1459C6.66953 10.3208 6.83312 10.5657 6.90764 10.8428L9.44652 20.3412L9.44826 20.3476C9.58089 20.825 9.86572 21.2461 10.2595 21.5468C10.6531 21.8496 11.1362 22.0131 11.6328 22.0116H16.778V26.9577C16.7776 27.3583 16.6182 27.7424 16.3349 28.0257C16.0516 28.309 15.6675 28.4684 15.2669 28.4688H3.31921C2.91856 28.4684 2.53445 28.309 2.25116 28.0257C1.96786 27.7424 1.8085 27.3583 1.80805 26.9577V3.06234C1.8085 2.66169 1.96786 2.27759 2.25116 1.99429C2.53446 1.71099 2.91856 1.55164 3.31921 1.55118H4.79302L5.12611 2.79046C5.20283 3.08079 5.36703 3.34048 5.59641 3.53428C5.8258 3.72808 6.10927 3.84661 6.40833 3.87378C6.41534 3.87446 6.4223 3.87533 6.42933 3.87592C6.4299 3.87596 6.43048 3.87598 6.43105 3.87602C6.47084 3.87928 6.51096 3.88094 6.55143 3.88101H12.0347C12.0753 3.88101 12.1155 3.87934 12.1554 3.87601L12.1568 3.87592C12.1639 3.87532 12.171 3.87444 12.1782 3.87375C12.4774 3.84639 12.761 3.72759 12.9904 3.53348C13.2198 3.33937 13.384 3.07936 13.4605 2.78875L13.7931 1.55118H15.2669C15.6676 1.55164 16.0517 1.71099 16.3349 1.99429C16.6182 2.27759 16.7776 2.66169 16.7781 3.06234V10.856H12.4592C12.1122 10.8576 11.7702 10.9387 11.4594 11.0929C11.1486 11.2472 10.8773 11.4705 10.6662 11.7459C10.4551 12.0212 10.3098 12.3413 10.2416 12.6815C10.1733 13.0217 10.1839 13.373 10.2724 13.7085L10.632 15.0269C10.6483 15.0879 10.6766 15.1452 10.7151 15.1953C10.7537 15.2454 10.8018 15.2874 10.8566 15.3189C10.9114 15.3504 10.9719 15.3708 11.0347 15.3788C11.0974 15.3869 11.1611 15.3824 11.2221 15.3658C11.2831 15.3492 11.3402 15.3206 11.3901 15.2819C11.4401 15.2431 11.4819 15.1948 11.5131 15.1399C11.5444 15.0849 11.5645 15.0243 11.5722 14.9615C11.58 14.8988 11.5753 14.8351 11.5584 14.7742L11.2005 13.4622C11.149 13.2675 11.1432 13.0635 11.1834 12.8662C11.2237 12.6688 11.3089 12.4835 11.4326 12.3245C11.5529 12.1664 11.7082 12.0382 11.8863 11.95C12.0644 11.8619 12.2605 11.8161 12.4592 11.8162H17.2582L17.2587 11.8162H24.6757C24.8767 11.8152 25.0751 11.8612 25.2552 11.9505C25.4353 12.0397 25.5921 12.1698 25.713 12.3304C25.8337 12.4885 25.9158 12.6727 25.9528 12.8682C25.9898 13.0637 25.9806 13.2652 25.9259 13.4565Z" fill="white" stroke="white" stroke-width="0.299685"/>
<path d="M14.0524 25.7654C14.4122 25.7663 14.7642 25.6606 15.064 25.4615C15.3637 25.2624 15.5976 24.9789 15.7362 24.6469C15.8748 24.3148 15.9119 23.9491 15.8426 23.596C15.7734 23.243 15.601 22.9183 15.3473 22.6632C15.0935 22.4081 14.7699 22.2339 14.4171 22.1628C14.0644 22.0916 13.6985 22.1266 13.3657 22.2634C13.0329 22.4002 12.7482 22.6326 12.5475 22.9312C12.3467 23.2299 12.2391 23.5813 12.2381 23.9411C12.2373 24.4235 12.4279 24.8864 12.768 25.2284C13.1082 25.5704 13.5701 25.7635 14.0524 25.7654ZM13.2253 23.728C13.2775 23.5244 13.4022 23.347 13.5759 23.2289C13.7497 23.1107 13.9606 23.0601 14.1691 23.0864C14.3775 23.1127 14.5692 23.2142 14.7082 23.3718C14.8471 23.5294 14.9238 23.7323 14.9238 23.9424C14.9238 24.1525 14.8471 24.3554 14.7082 24.513C14.5692 24.6706 14.3775 24.7721 14.1691 24.7984C13.9606 24.8247 13.7497 24.774 13.5759 24.6559C13.4022 24.5378 13.2775 24.3603 13.2253 24.1568C13.2073 24.0863 13.1983 24.0139 13.1983 23.9411C13.1983 23.8692 13.2073 23.7976 13.2253 23.728Z" fill="white" stroke="white" stroke-width="0.299685"/>
<path d="M24.0136 14.4999H13.1213C12.994 14.4999 12.8718 14.5505 12.7818 14.6405C12.6918 14.7305 12.6412 14.8527 12.6412 14.98C12.6412 15.1073 12.6918 15.2295 12.7818 15.3195C12.8718 15.4095 12.994 15.4601 13.1213 15.4601H24.0136C24.1409 15.4601 24.263 15.4095 24.3531 15.3195C24.4431 15.2295 24.4937 15.1073 24.4937 14.98C24.4937 14.8527 24.4431 14.7305 24.3531 14.6405C24.263 14.5505 24.1409 14.4999 24.0136 14.4999Z" fill="white" stroke="white" stroke-width="0.299685"/>
<path d="M23.2373 17.4171H13.9082C13.7809 17.4171 13.6587 17.4677 13.5687 17.5577C13.4787 17.6478 13.4281 17.7699 13.4281 17.8972C13.4281 18.0246 13.4787 18.1467 13.5687 18.2367C13.6587 18.3268 13.7809 18.3774 13.9082 18.3774H23.2373C23.3647 18.3774 23.4868 18.3268 23.5768 18.2367C23.6669 18.1467 23.7175 18.0246 23.7175 17.8972C23.7175 17.7699 23.6669 17.6478 23.5768 17.5577C23.4868 17.4677 23.3647 17.4171 23.2373 17.4171Z" fill="white" stroke="white" stroke-width="0.299685"/>
</svg>
