<svg width="25" height="20" viewBox="0 0 25 20" fill="none" xmlns="http://www.w3.org/2000/svg">
<path d="M24.7726 14.2119L22.9135 12.3528V5.97591L24.1272 5.53835C24.4059 5.43785 24.5917 5.17362 24.5919 4.87739C24.5921 4.58124 24.4067 4.31664 24.1282 4.21581L13.0239 0.194354C12.8692 0.13834 12.6997 0.13834 12.545 0.194354L1.44077 4.21581C1.16333 4.31631 0.97818 4.57927 0.977055 4.87434C0.976024 5.16941 1.15925 5.43373 1.4359 5.53624L5.534 7.05433V11.688C5.534 11.8319 5.57806 11.9722 5.66032 12.0902C5.70555 12.155 6.13402 12.7402 7.23105 13.2923C8.61696 13.99 10.4347 14.3438 12.6337 14.3438C14.8312 14.3438 16.6581 13.9908 18.0638 13.2944C19.1716 12.7457 19.6144 12.1667 19.6612 12.1025C19.749 11.9822 19.7963 11.8371 19.7963 11.6881V7.0997L21.5074 6.4828V12.3528L19.6483 14.2119C19.5164 14.3437 19.4423 14.5225 19.4423 14.709C19.4423 14.8955 19.5164 15.0743 19.6483 15.2061L21.5074 17.0652V18.625C21.5074 19.0133 21.8222 19.3281 22.2105 19.3281C22.5988 19.3281 22.9136 19.0133 22.9136 18.625V17.0652L24.7726 15.2061C25.0472 14.9316 25.0472 14.4864 24.7726 14.2119ZM12.7845 1.60323L21.8198 4.87542L12.6371 8.18604L3.72435 4.88437L12.7845 1.60323ZM18.39 11.4078C15.9864 13.5707 8.84392 13.3227 6.9402 11.4149V7.57528L12.3895 9.59393C12.476 9.60762 12.5576 9.68219 12.8722 9.59609L18.3901 7.60678L18.39 11.4078ZM22.2104 15.7797L21.1397 14.709L22.2104 13.6383L23.2811 14.709L22.2104 15.7797Z" fill="white"/>
</svg>
