<svg width="26" height="27" viewBox="0 0 26 27" fill="none" xmlns="http://www.w3.org/2000/svg">
<path d="M16.375 26.1273H9.88754C9.65306 26.1273 9.49673 25.9319 9.49673 25.7365V23.9388C9.49673 23.7043 9.69214 23.548 9.88754 23.548C10.0829 23.548 10.2784 23.7434 10.2784 23.9388V25.3457H15.9451V23.9388C15.9451 23.7043 16.1405 23.548 16.3359 23.548C16.5313 23.548 16.7267 23.7434 16.7267 23.9388V25.7365C16.7658 25.971 16.5704 26.1273 16.375 26.1273Z" fill="white" stroke="white" stroke-width="0.303685"/>
<path d="M18.1727 26.1273H8.08985C7.85536 26.1273 7.69904 25.9319 7.69904 25.7365C7.69904 25.5411 7.89444 25.3457 8.08985 25.3457H18.1727C18.4072 25.3457 18.5636 25.5411 18.5636 25.7365C18.5636 25.9319 18.3681 26.1273 18.1727 26.1273Z" fill="white" stroke="white" stroke-width="0.303685"/>
<path d="M25.0511 18.4674H1.2117C0.977216 18.4674 0.820892 18.272 0.820892 18.0766V10.1823C0.820892 9.94777 1.0163 9.79145 1.2117 9.79145C1.40711 9.79145 1.60251 9.98685 1.60251 10.1823V17.6467H24.6603V6.23507C24.6603 5.5707 24.1132 5.02356 23.4488 5.02356H10.6693C10.4348 5.02356 10.2785 4.82816 10.2785 4.63275C10.2785 4.43735 10.4739 4.24194 10.6693 4.24194H23.4488C24.5431 4.24194 25.4419 5.14081 25.4419 6.23507V18.0766C25.4419 18.272 25.2465 18.4674 25.0511 18.4674Z" fill="white" stroke="white" stroke-width="0.303685"/>
<path d="M23.4488 22.7274H2.77494C1.68067 22.7274 0.820892 21.8285 0.820892 20.7343V18.0377C0.820892 17.8032 1.0163 17.6469 1.2117 17.6469H25.0511C25.2856 17.6469 25.4419 17.8423 25.4419 18.0377V20.7343C25.4419 21.8285 24.5431 22.7274 23.4488 22.7274ZM1.60251 18.4676V20.7343C1.60251 21.3986 2.14965 21.9458 2.81402 21.9458H23.4879C24.1523 21.9458 24.6994 21.3986 24.6994 20.7343V18.4676H1.60251Z" fill="white" stroke="white" stroke-width="0.303685"/>
<path d="M13.1314 21.3987C12.467 21.3987 11.959 20.8516 11.959 20.2263C11.959 19.5619 12.5061 19.0538 13.1314 19.0538C13.7958 19.0538 14.3038 19.601 14.3038 20.2263C14.3038 20.8516 13.7958 21.3987 13.1314 21.3987ZM13.1314 19.7964C12.8969 19.7964 12.7406 19.9918 12.7406 20.1872C12.7406 20.4217 12.936 20.578 13.1314 20.578C13.3659 20.578 13.5222 20.3826 13.5222 20.1872C13.5222 19.9918 13.3268 19.7964 13.1314 19.7964Z" fill="white" stroke="white" stroke-width="0.303685"/>
<path d="M13.3659 16.6697H12.8579C12.428 16.6697 12.0372 16.3571 11.959 15.9272L11.8418 15.1455C11.8418 15.1065 11.8027 15.0674 11.7636 15.0674C11.6464 15.0283 11.5291 14.9892 11.4119 14.9111C11.3728 14.9111 11.3337 14.872 11.2946 14.9111L10.6693 15.38C10.3176 15.6536 9.80955 15.6145 9.4969 15.3019L9.14517 14.9111C8.83252 14.5984 8.79344 14.1294 9.06701 13.7777L9.53598 13.1524C9.57506 13.1133 9.57506 13.0743 9.53598 13.0352C9.4969 12.9179 9.41874 12.8007 9.37966 12.6834C9.37966 12.6834 9.34058 12.6444 9.3015 12.6053L8.51988 12.488C8.16815 12.449 7.8555 12.0581 7.8555 11.6283V11.0811C7.8555 10.6512 8.16815 10.2604 8.59804 10.1823L9.37966 10.065C9.41874 10.065 9.45782 10.0259 9.45782 9.98685C9.4969 9.86961 9.53598 9.75237 9.61414 9.63513C9.61414 9.59604 9.61414 9.55696 9.61414 9.55696L9.10609 8.93167C8.83252 8.57994 8.87161 8.11097 9.18425 7.79832L9.53598 7.40751C9.84863 7.09486 10.3567 7.05578 10.7084 7.32935L11.3337 7.79832C11.3728 7.8374 11.4119 7.79832 11.451 7.79832C11.5682 7.75924 11.6854 7.68108 11.8027 7.64199C11.8418 7.64199 11.8808 7.60291 11.8808 7.56383L11.9981 6.78221C12.0762 6.35232 12.428 6.03967 12.8969 6.03967H13.405C13.8349 6.03967 14.2257 6.35232 14.3039 6.78221L14.4211 7.56383C14.4211 7.60291 14.4602 7.64199 14.4993 7.64199C14.6165 7.68108 14.7338 7.72016 14.851 7.79832H14.9682L15.5935 7.32935C15.9453 7.09486 16.4533 7.09486 16.766 7.40751L17.1177 7.79832C17.4303 8.11097 17.4694 8.57994 17.1959 8.93167L16.7269 9.55696C16.6878 9.59604 16.6878 9.63513 16.7269 9.67421C16.766 9.79145 16.8441 9.90869 16.8832 10.0259C16.8832 10.065 16.9223 10.1041 16.9614 10.1041L17.743 10.2213C18.1729 10.2995 18.4855 10.6512 18.4855 11.1202V11.6673C18.4855 12.0972 18.1729 12.488 17.743 12.5662L16.9614 12.6834C16.9223 12.6834 16.8832 12.7225 16.8832 12.7616C16.8441 12.8788 16.805 12.9961 16.7269 13.1133V13.1915L17.1959 13.8168C17.4694 14.1685 17.4303 14.6375 17.1177 14.9501L16.766 15.341C16.4533 15.6536 15.9453 15.6927 15.5935 15.4191L14.8901 14.9111C14.851 14.872 14.8119 14.872 14.7728 14.9111C14.6556 14.9501 14.5384 15.0283 14.4211 15.0674C14.382 15.0674 14.382 15.1065 14.382 15.1455L14.2648 15.9272C14.1866 16.3571 13.8349 16.6697 13.3659 16.6697ZM11.4119 14.1294C11.5291 14.1294 11.6854 14.1685 11.8027 14.2076C11.8808 14.2467 11.9981 14.2858 12.0762 14.3248C12.3889 14.4421 12.5843 14.7157 12.6625 15.0283L12.7797 15.8099C12.7797 15.849 12.8188 15.8881 12.8579 15.8881H13.3659C13.405 15.8881 13.4441 15.849 13.4441 15.8099L13.5613 15.0283C13.6004 14.7157 13.8349 14.4421 14.1475 14.3248C14.2648 14.2858 14.3429 14.2467 14.4211 14.2076C14.6947 14.0904 15.0855 14.0904 15.32 14.2858L15.9453 14.7547C15.9843 14.7938 16.0234 14.7938 16.0625 14.7547L16.4142 14.3639C16.4533 14.3248 16.4533 14.2858 16.4142 14.2467L16.0234 13.6214C15.828 13.3478 15.7889 13.0352 15.9453 12.7225C15.9843 12.6444 16.0234 12.5271 16.0625 12.449C16.1798 12.1363 16.4533 11.9018 16.766 11.8627L17.5085 11.7455C17.5476 11.7455 17.5867 11.7064 17.5867 11.6673V11.1202C17.5867 11.0811 17.5476 11.042 17.5085 11.042L16.7269 10.9248C16.4142 10.8857 16.1407 10.6512 16.0234 10.3386C15.9843 10.2213 15.9453 10.1432 15.9062 10.065C15.7499 9.75237 15.7889 9.40064 15.9843 9.16615L16.4533 8.54086C16.4924 8.50178 16.4924 8.4627 16.4533 8.42361L16.1016 8.07188C16.0625 8.0328 16.0234 8.0328 15.9843 8.07188L15.3591 8.54086C15.1246 8.73626 14.7338 8.77534 14.4602 8.61902C14.382 8.57994 14.2648 8.54086 14.1866 8.50178C13.874 8.38453 13.6786 8.11097 13.6004 7.79832L13.4832 7.0167C13.4832 6.97762 13.4441 6.93854 13.405 6.93854H12.8969C12.8579 6.93854 12.8188 6.97762 12.8188 7.0167L12.7015 7.79832C12.6625 8.11097 12.428 8.38453 12.1153 8.50178C12.0372 8.54086 11.9199 8.57994 11.8418 8.61902C11.5682 8.73626 11.1774 8.73626 10.9429 8.54086L10.3176 8.07188C10.2785 8.0328 10.2394 8.0328 10.2004 8.07188L9.84863 8.46269C9.80955 8.50178 9.80955 8.54086 9.84863 8.57994L10.3176 9.20523C10.513 9.4788 10.5521 9.79145 10.3958 10.1041C10.3567 10.1823 10.3176 10.2995 10.2785 10.3777C10.1613 10.6903 9.88771 10.9248 9.57506 10.9639L8.83252 11.0811C8.79344 11.0811 8.75436 11.1202 8.75436 11.1593V11.7064C8.75436 11.7455 8.79344 11.7846 8.83252 11.7846L9.61414 11.9018C9.92679 11.9409 10.2004 12.1754 10.3176 12.488C10.3567 12.6053 10.3958 12.6834 10.4348 12.7616C10.5912 13.0743 10.5521 13.426 10.3567 13.6605L9.88771 14.2858C9.84863 14.3248 9.84863 14.3639 9.88771 14.403L10.2394 14.7547C10.2785 14.7938 10.3176 14.7938 10.3567 14.7547L10.982 14.2858C11.0211 14.1685 11.2165 14.1294 11.4119 14.1294Z" fill="white" stroke="white" stroke-width="0.303685"/>
<path d="M13.1313 13.5824C11.8807 13.5824 10.9037 12.5663 10.9037 11.3548C10.9037 10.1433 11.9198 9.1272 13.1313 9.1272C14.3819 9.1272 15.359 10.1433 15.359 11.3548C15.359 12.5663 14.3428 13.5824 13.1313 13.5824ZM13.1313 9.90882C12.3497 9.90882 11.6853 10.5732 11.6853 11.3548C11.6853 12.1364 12.3497 12.8008 13.1313 12.8008C13.913 12.8008 14.5773 12.1364 14.5773 11.3548C14.5773 10.5732 13.913 9.90882 13.1313 9.90882Z" fill="white" stroke="white" stroke-width="0.303685"/>
<path d="M5.27598 10.4556H4.84609C4.45528 10.4556 4.10355 10.1429 4.02538 9.75214L3.90814 9.08776C3.7909 9.0096 3.67366 8.97052 3.55641 8.93144L3.00928 9.32225C2.65755 9.55673 2.18858 9.51765 1.91501 9.24408L1.64144 8.93144C1.36788 8.65787 1.32879 8.1889 1.56328 7.87625L1.95409 7.32911C1.91501 7.21187 1.87593 7.09463 1.83685 6.97739L1.13339 6.86014C0.74258 6.78198 0.429932 6.43025 0.429932 6.03944V5.57047C0.429932 5.17966 0.74258 4.82793 1.13339 4.74977L1.79777 4.63252L1.83685 4.59344C1.87593 4.4762 1.91501 4.39804 1.95409 4.2808L1.56328 3.69458C1.32879 3.34285 1.36788 2.91296 1.64144 2.63939L1.95409 2.32675C2.22766 2.05318 2.69663 2.0141 3.04836 2.24858L3.59549 2.63939C3.71274 2.60031 3.82998 2.56123 3.94722 2.52215L4.06447 1.81869C4.14263 1.42788 4.49436 1.11523 4.88517 1.11523H5.31506C5.70587 1.11523 6.0576 1.42788 6.13576 1.81869L6.253 2.48307L6.29208 2.52215C6.40933 2.56123 6.48749 2.60031 6.60473 2.63939L7.19095 2.24858C7.50359 2.0141 8.01165 2.05318 8.28521 2.32675L8.59786 2.63939C8.87143 2.91296 8.91051 3.38193 8.67602 3.69458L8.28521 4.24171C8.32429 4.35896 8.36338 4.4762 8.40246 4.59344L9.10592 4.71069C9.49673 4.78885 9.80937 5.14058 9.80937 5.53139V6.00036C9.80937 6.43025 9.49673 6.7429 9.10592 6.82106L8.44154 6.9383C8.36338 7.05555 8.32429 7.17279 8.28521 7.29003L8.67602 7.87625C8.91051 8.1889 8.87143 8.65787 8.59786 8.93144L8.28521 9.24408C8.01165 9.51765 7.50359 9.55673 7.19095 9.32225L6.64381 8.93144C6.52657 8.97052 6.40933 9.0096 6.29208 9.04868L6.17484 9.75214C6.0576 10.182 5.70587 10.4556 5.27598 10.4556ZM3.59549 8.14982C3.71274 8.14982 3.82998 8.1889 3.94722 8.22798C4.02538 8.26706 4.10355 8.30614 4.18171 8.34522C4.45528 8.46246 4.65068 8.69695 4.72884 9.0096L4.84609 9.67397L5.31506 9.71306C5.31506 9.71306 5.35414 9.71306 5.35414 9.67397L5.47138 9.0096C5.51046 8.69695 5.70587 8.46246 6.01852 8.34522C6.09668 8.30614 6.17484 8.26706 6.253 8.26706C6.52657 8.11073 6.8783 8.14982 7.11278 8.34522L7.65992 8.73603H7.699L8.01165 8.42338V8.3843L7.62084 7.83717C7.42543 7.60268 7.42543 7.29003 7.54267 6.97739C7.58176 6.89922 7.62084 6.82106 7.65992 6.7429C7.77716 6.46933 8.01165 6.23485 8.32429 6.19577L8.94959 6.07852L8.98867 6.03944V5.57047L8.94959 5.53139L8.20705 5.41414C7.8944 5.37506 7.65992 5.17966 7.54267 4.86701C7.54267 4.78885 7.50359 4.71069 7.46451 4.63252C7.34727 4.35896 7.34727 4.00723 7.54267 3.77274L7.93348 3.22561V3.18653L7.62084 2.87388H7.58176L7.03462 3.26469C6.80014 3.46009 6.44841 3.46009 6.17484 3.34285C6.09668 3.30377 6.01852 3.26469 5.94035 3.22561C5.66679 3.10837 5.47138 2.87388 5.39322 2.56123L5.27598 1.89685H4.84609C4.84609 1.89685 4.807 1.89685 4.807 1.93594L4.68976 2.60031C4.65068 2.91296 4.45528 3.14745 4.14263 3.26469C4.10355 3.30377 4.02538 3.30377 3.94722 3.34285C3.67366 3.49918 3.32193 3.46009 3.08744 3.26469L2.54031 2.87388H2.50122L2.18858 3.18653V3.22561L2.57939 3.77274C2.77479 4.04631 2.81387 4.35896 2.65755 4.63252C2.61847 4.71069 2.57939 4.78885 2.57939 4.86701C2.46214 5.14058 2.22766 5.37506 1.91501 5.41414L1.25063 5.53139L1.21155 5.57047V6.03944L1.25063 6.07852L1.91501 6.19577C2.22766 6.23485 2.46214 6.43025 2.57939 6.7429L2.69663 6.97739C2.81387 7.25095 2.81387 7.60268 2.61847 7.83717L2.22766 8.3843V8.42338L2.54031 8.73603L2.77479 9.0096L2.54031 8.69695L3.08744 8.30614C3.24376 8.1889 3.40009 8.14982 3.59549 8.14982Z" fill="white" stroke="white" stroke-width="0.303685"/>
<path d="M5.08056 7.75932C3.94721 7.75932 3.08743 6.89953 3.08743 5.80527C3.08743 4.711 3.94721 3.81213 5.08056 3.81213C6.21391 3.81213 7.0737 4.67192 7.0737 5.80527C7.0737 6.93861 6.17483 7.75932 5.08056 7.75932ZM5.08056 4.59375C4.41619 4.59375 3.86905 5.14089 3.86905 5.80527C3.86905 6.46964 4.41619 7.01678 5.08056 7.01678C5.74494 7.01678 6.29208 6.46964 6.29208 5.80527C6.25299 5.14089 5.70586 4.59375 5.08056 4.59375Z" fill="white" stroke="white" stroke-width="0.303685"/>
</svg>
